<svg width="653" height="120" viewBox="0 0 653 120" fill="none" xmlns="http://www.w3.org/2000/svg">
<g clip-path="url(#clip0_2208_53)">
<path fill-rule="evenodd" clip-rule="evenodd" d="M18.1754 59.9932C18.1754 47.1494 25.1884 36.0736 35.5469 29.9106C35.8428 29.7345 35.8448 29.3014 35.547 29.1286L32.4397 27.3253C31.8729 26.9964 31.1698 27.0043 30.6217 27.3636C19.6005 34.5875 12.5348 46.5814 12.5348 59.9932C12.5348 73.4444 19.6422 85.4698 30.7189 92.6867C31.2666 93.0435 31.9677 93.0504 32.533 92.7223L35.6456 90.9158C35.9439 90.7427 35.9412 90.3086 35.6442 90.1332C25.2321 83.9817 18.1754 72.8774 18.1754 59.9932ZM30.7102 59.9932C30.7102 70.7861 38.742 80.1168 49.8034 82.2252C50.2071 82.3022 50.6248 82.2236 50.9805 82.0172L62.2678 75.4676C63.1359 74.9639 64.2433 75.2826 64.7687 76.1398C66.2291 78.5226 68.0029 80.727 70.0398 82.7078C70.9256 83.5692 70.795 85.0674 69.7271 85.6871L32.6849 107.182C32.1624 107.485 31.5219 107.502 30.9856 107.224C27.27 105.298 23.6427 103.282 20.3118 100.705C7.99259 91.1732 6.19146e-06 76.5415 0 59.9975C0 39.9469 11.74 22.6962 28.6935 13.938L30.8696 12.814C31.4077 12.5361 32.0496 12.5519 32.5734 12.8559L69.6584 34.3751C70.7244 34.9937 70.8568 36.4885 69.9747 37.3508C67.9441 39.3357 66.1769 41.5436 64.7234 43.9292C64.1993 44.7896 63.0896 45.1107 62.2197 44.606L50.8323 37.9982C50.4733 37.7899 50.0513 37.7119 49.6444 37.7922C38.6644 39.9598 30.7102 49.252 30.7102 59.9932Z" fill="white"/>
<path d="M40.4298 11.963C39.1174 11.2013 39.305 9.27073 40.7628 8.85273C45.3087 7.54929 50.0942 6.74861 55.0431 6.52108C55.7036 6.49071 56.3573 6.65864 56.9297 6.99083L86.952 24.4141C88.4159 25.2637 87.9984 27.6036 86.3673 28.0516C82.9856 28.9804 79.8092 30.3349 76.9148 32.046C76.3466 32.382 75.6416 32.398 75.0708 32.0666L40.4298 11.963Z" fill="white"/>
<path fill-rule="evenodd" clip-rule="evenodd" d="M57.0973 113.012C56.5277 113.342 55.8777 113.51 55.2204 113.482C50.2532 113.267 45.4494 112.475 40.8859 111.177C39.4256 110.762 39.2358 108.829 40.5498 108.067L75.1613 87.9813C75.7307 87.6509 76.4335 87.6659 77.001 87.9994C79.905 89.7058 83.0909 91.0539 86.4819 91.9743C88.1176 92.4183 88.5403 94.7655 87.0734 95.6167L57.0973 113.012Z" fill="white"/>
<path d="M432.382 80.5009L443.998 26.96H458.164C458.308 26.96 458.527 27.3967 458.44 27.5979L447.315 79.8668C447.228 80.068 447.443 80.5047 447.591 80.5047H459.113L470.544 27.3017C470.581 27.165 470.937 26.9638 471.012 26.9638H484.989C485.016 26.9638 485.45 27.1612 485.462 27.2676L471.496 92.952L415.485 93.0318C407.789 92.3027 404.669 88.0346 405.19 80.4098C408.927 63.4855 411.737 46.2347 415.817 29.3864C416.01 28.5966 416.183 27.6017 416.618 26.9638H430.784C430.867 26.9638 431.101 27.26 431.056 27.4195L419.931 79.8706C419.844 80.0718 420.059 80.5085 420.207 80.5085H432.389L432.382 80.5009Z" fill="white"/>
<path d="M241.705 26.9599C241.883 27.1042 241.928 27.1194 241.917 27.351C241.905 27.6434 241.641 28.6687 241.562 29.0902C238.732 43.6677 235.412 58.2301 232.306 72.7583C230.081 83.1817 228.17 94.4253 225.503 104.652C223.112 113.822 217.343 119.298 207.718 120L174.558 119.992L177.134 107.678L209.508 107.564L212.712 93.0317L193.533 93.0393C183.201 92.1925 179.367 88.2624 181.221 77.7972C183.665 63.9829 187.133 49.618 190.099 35.8379C190.703 33.0355 191.361 30.2407 191.939 27.4346L192.222 26.9599H206.955C207.404 26.9599 207.057 28.3763 206.996 28.7105C203.997 45.3309 199.056 62.145 196.336 78.7503C196.275 79.1148 195.886 80.6869 196.373 80.6869H215.073L226.972 26.9561H241.705V26.9599Z" fill="white"/>
<path d="M274.004 0C274.204 0.0607556 274.344 0.421492 274.284 0.645529L268.621 26.9603C276.127 27.5679 286.3 25.4414 293.153 28.9804C300.006 32.5195 299.839 38.6937 298.596 45.4148C296.772 55.2762 294.566 66.2426 292.14 75.9483C289.477 86.6072 282.202 92.1435 271.371 93.0435L239.155 93.0359L259.082 0H274.004ZM284.298 39.4912H265.977L257.571 80.5012H275.326L284.298 39.4912Z" fill="white"/>
<path d="M644.118 80.6905L641.636 93.0049L609.451 93.0353C597.997 92.0594 595.398 83.6599 596.951 73.434C598.186 65.3117 600.483 54.9757 602.576 47.0015C605.673 35.2149 612.008 27.5787 624.747 26.9483C629.11 26.7319 634.765 26.7167 639.117 26.9483C649.709 27.5141 654.069 33.6846 652.781 44.1156L647.613 68.7292L613.64 68.9077L611.072 80.0526C610.985 80.2538 611.2 80.6905 611.347 80.6905H644.118ZM638.074 39.4906H619.564L616.379 56.0731C616.413 56.1756 616.572 56.3882 616.636 56.3882H634.391C634.467 56.3882 634.822 56.1908 634.859 56.0541L638.074 39.4906Z" fill="white"/>
<path d="M350.029 80.691L347.268 93.0092L315.365 93.0396C302.136 91.8207 301.199 81.739 303.243 70.7765C304.682 63.0377 306.507 53.8712 308.573 46.3261C311.705 34.8851 318.153 27.5906 330.476 26.9527C334.828 26.7286 340.498 26.7248 344.846 26.9527C355.091 27.4843 359.594 33.108 358.695 43.3605L353.452 68.8095L319.249 68.9272L316.816 80.0721C316.695 80.2733 316.933 80.6872 317.069 80.6872H350.029V80.691ZM343.985 39.4911H325.474L322.082 55.7508C321.995 55.9521 322.211 56.3888 322.358 56.3888H340.302L343.985 39.4911Z" fill="white"/>
<path d="M496.413 39.4908L498.868 27.2903L499.54 26.9789C509.151 27.37 519.256 26.3942 528.81 26.9524C538.363 27.5105 541.529 32.9254 540.396 41.8413L529.663 92.9482L494.04 93.0355C482.133 91.9533 482.307 79.468 484.6 70.4344C487.18 60.273 493.077 52.1166 504.236 51.4407L523.415 51.4483L525.678 39.692C525.508 39.711 525.278 39.487 525.213 39.487H496.409L496.413 39.4908ZM520.495 63.2235H501.607C501.546 63.2235 501.165 63.4171 501.135 63.5538L497.561 81.2375C497.716 81.2375 497.95 81.4502 498.014 81.4502H516.525C517.133 81.4502 517.333 79.5629 517.473 78.9858C518.557 74.4253 519.766 69.1927 520.533 64.5943C520.586 64.2715 520.865 63.3146 520.495 63.2235Z" fill="white"/>
<path d="M562.427 26.96L563.557 78.6023L586.415 26.96H601.337L601.594 27.4043L572.06 93.0318H548.922L548.552 78.3099L547.403 39.4035C547.573 36.6163 547.286 33.8064 547.215 31.0496C547.192 30.1193 547.075 28.2473 547.222 27.4347C547.26 27.222 547.316 27.0777 547.505 26.96H562.427Z" fill="white"/>
<path d="M172.858 80.6913L170.278 93.0399H140.079C128.516 92.2501 125.992 84.0936 127.549 73.7842C128.769 65.6999 131.092 55.8309 133.094 47.8415C136.181 35.5461 142.149 27.5681 155.564 26.9492L184.191 26.9568L181.698 39.1686L150.373 39.5787L141.685 80.2167C141.666 80.3762 141.877 80.6875 141.976 80.6875H172.858V80.6913Z" fill="white"/>
<path d="M359.473 93.0323L369.012 47.6554C371.985 35.8916 378.516 27.6326 391.292 26.9529C396.328 26.6871 403.502 26.6074 408.496 26.9529C408.862 26.9795 409.18 27.0668 409.527 27.1542L406.701 39.404L386.313 39.5104L375.151 93.0323H359.473Z" fill="white"/>
</g>
<defs>
<clipPath id="clip0_2208_53">
<rect width="653" height="120" fill="white"/>
</clipPath>
</defs>
</svg>
